# xmcd
#
# Track frame offsets:
#	150
#	20202
#	29469
#	41318
#	53114
#	81381
#	96956
#	120957
#	134266
#	148099
#	168757
#	190493
#	198566
#	218416
#	228429
#	241860
#	253742
#	277546
#	294283
#	310202
#
# Disc length: 4347 seconds
#
# Revision: 0
# Processed by: cddbd v1.5.2PL0 Copyright (c) Steve Scherf et al.
# Submitted via: EasyCDDAExtractor 11.1.0.1
#
DISCID=1510f914
DTITLE=Fleetwood Mac - Tusk
DYEAR=1979
DGENRE=Classic Rock
TTITLE0=Over And Over
TTITLE1=The Ledge
TTITLE2=Think About Me
TTITLE3=Save Me A Place
TTITLE4=Sara (Edit)
TTITLE5=What Makes You Think You're The One
TTITLE6=Storms
TTITLE7=That's All For Everyone
TTITLE8=Not That Funny
TTITLE9=Sisters Of The Moon
TTITLE10=Angel
TTITLE11=That's Enough For Me
TTITLE12=Brown Eyes
TTITLE13=Never Make Me Cry
TTITLE14=I Know I'm Not Wrong
TTITLE15=Honey Hi
TTITLE16=Beautiful Child
TTITLE17=Walk A Thin Line
TTITLE18=Tusk
TTITLE19=Never Forget
EXTD=
EXTT0=
EXTT1=
EXTT2=
EXTT3=
EXTT4=
EXTT5=
EXTT6=
EXTT7=
EXTT8=
EXTT9=
EXTT10=
EXTT11=
EXTT12=
EXTT13=
EXTT14=
EXTT15=
EXTT16=
EXTT17=
EXTT18=
EXTT19=
PLAYORDER=
